<svg xmlns="http://www.w3.org/2000/svg" width="16.719" height="16.002" viewBox="0 0 16.719 16.002">
  <defs>
    <style>
      .cls-1 {
        fill: #fff969;
      }
    </style>
  </defs>
  <path id="Path_1" data-name="Path 1" class="cls-1" d="M8.1-13.444,6.062-9.306,1.5-8.641A1,1,0,0,0,.944-6.934l3.3,3.219L3.466.831a1,1,0,0,0,1.45,1.053L9-.263l4.084,2.147A1,1,0,0,0,14.534.831l-.781-4.547,3.3-3.219A1,1,0,0,0,16.5-8.641l-4.566-.666L9.9-13.444A1,1,0,0,0,8.1-13.444Z" transform="translate(-0.641 14)"/>
</svg>
